<?xml version="1.0" encoding="utf-8"?>
<!DOCTYPE svg PUBLIC "-//W3C//DTD SVG 1.0//EN" "http://www.w3.org/TR/2001/REC-SVG-20010904/DTD/svg10.dtd">
<svg version="1.0" xmlns="http://www.w3.org/2000/svg" width="1024px" height="1024px" viewBox="0 0 1024 1024" preserveAspectRatio="xMidYMid meet">
 <g fill="#02bfa0">
  <path d="M484 902.8 c-14 -8.3 -32 -18.9 -40 -23.6 -8 -4.7 -20.6 -12.1 -28 -16.5 -7.4 -4.3 -36.7 -21.4 -65 -38 -28.3 -16.5 -58 -33.8 -65.9 -38.5 l-14.4 -8.4 0.7 -12.2 c0.4 -6.6 1.6 -18.8 2.7 -27.1 1.1 -8.2 1.9 -17 1.9 -19.4 -0.1 -2.4 0.4 -7.6 1 -11.5 0.5 -3.9 1.5 -14.3 2 -23.1 1.3 -20.8 4.6 -59.5 6.2 -71.2 1.3 -10 2.3 -11.3 8.8 -11.3 2.9 0 3 0.2 3 4.5 0 2.5 0.5 4.5 1 4.5 0.6 0 1 0.9 1 2 0 1.1 0.6 2 1.3 2 0.7 0 2.5 0.6 4 1.3 2.1 0.9 2.7 1.9 2.7 4.5 0 1.7 0.5 3.2 1 3.2 0.6 0 1 1.8 1 4 0 4.2 3.3 9 6.3 9 0.7 0 2.3 0.9 3.5 2 1.2 1.1 2.6 2 3.2 2 1.5 0 1.2 8.2 -0.4 10.5 -0.7 1.1 -7.5 12.6 -15.1 25.5 -21.4 36.6 -24.5 41.9 -24.5 42.4 0 0.5 0.9 1.1 20.7 12.5 7.8 4.6 14.6 8 15.2 7.7 0.5 -0.3 2.1 -2.7 3.7 -5.4 2.6 -4.6 8.6 -14.8 34.4 -58.7 6.8 -11.5 19.2 -32.7 27.5 -47.1 18.1 -31 19.6 -33.3 22.6 -36.1 3.9 -3.4 61.9 -37.6 89.3 -52.5 l9 -4.9 8.1 4 c10.8 5.4 25.4 13.3 47 25.6 9.9 5.6 19.4 11 21.2 11.9 2.8 1.4 7.6 1.6 36.3 1.6 28.6 0 33 0.2 33 1.5 0 3.1 -7 19.7 -11.6 27.6 -2.6 4.6 -7.4 11.5 -10.5 15.4 -5.8 7.4 -21.6 22.5 -26.5 25.5 l-2.9 1.7 -25 -14 c-13.7 -7.7 -30.6 -17.1 -37.5 -21 -6.9 -3.8 -16.6 -9.2 -21.7 -11.9 l-9.2 -4.9 -3.3 1.7 c-3.6 1.8 -33.3 19.7 -46.7 28.1 l-8.4 5.3 -8.5 14.2 c-4.7 7.9 -11.5 19.5 -15.2 25.8 -3.7 6.3 -13.4 23 -21.7 37 -11.7 19.8 -31.3 53.5 -33.9 58.1 -0.3 0.6 9.4 6.7 22.1 13.9 2.2 1.2 30.8 18 63.5 37.3 32.7 19.2 60.2 35.2 61.2 35.5 1.6 0.4 1.8 1.7 1.8 11.6 0 6.1 0.3 20.2 0.7 31.4 l0.6 20.2 -3.9 0 c-3.2 -0.1 -8.5 -2.8 -29.4 -15.2z"/>
  <path d="M513.2 800.8 c-1.8 -1.8 -1.7 -65.5 0.1 -64 0.9 0.8 3.2 0 8.7 -3.2 4.1 -2.3 15.4 -8.7 25 -14.1 9.6 -5.4 29.9 -17 45 -25.8 15.1 -8.8 39.9 -23.2 55 -32 37 -21.4 58.4 -34.4 60.5 -36.7 2.4 -2.6 9.9 -24.5 12.4 -36.5 1.2 -5.5 2.3 -10 2.4 -10.1 0.6 -0.6 56.6 -0.8 57.3 -0.2 0.8 0.9 -1 12.6 -4.2 26.8 -5 22.3 -16.7 55.5 -20.5 58.1 -3.7 2.6 -59.2 35.4 -109.9 65 -13.5 7.8 -31.9 18.6 -41 23.9 -38.6 22.7 -87.1 50 -88.7 50 -0.5 0 -1.4 -0.5 -2.1 -1.2z"/>
  <path d="M869 689.9 c-8.5 -5 -19.5 -11.3 -24.5 -14.1 -11 -6 -11.3 -6.3 -9.7 -8.8 0.9 -1.5 1.2 -12.9 1.2 -45.4 l0 -43.4 7.3 -0.5 c3.9 -0.2 13.5 -0.3 21.2 -0.1 7.7 0.1 17 0.3 20.8 0.3 l6.7 0.1 0 59.3 c0 44.8 -0.3 59.6 -1.2 60.5 -2.5 2.5 -6.7 0.9 -21.8 -7.9z"/>
  <path d="M367.2 525.7 c-19.2 -19.3 -20.6 -20.9 -19.7 -23.6 0.3 -1 6.9 -5.6 14.8 -10.3 7.8 -4.7 18.7 -11.2 24.2 -14.5 9.3 -5.6 49.7 -29.7 89 -53.1 9.4 -5.6 18 -10.2 19.1 -10.2 1.1 0 2.7 0.9 3.7 2 1.5 1.8 1.7 5 1.7 30 0 27.9 0 28 -2.2 29.3 -1.3 0.8 -6.3 3.9 -11.3 6.9 -4.9 3.1 -16.6 10.2 -26 15.8 -9.3 5.7 -26.7 16.2 -38.5 23.5 -11.8 7.3 -24.1 14.7 -27.2 16.5 -3.2 1.7 -6.1 3.6 -6.4 4.1 -1.5 2.5 -5.4 -0.5 -21.2 -16.4z"/>
  <path d="M614.4 513.7 c-0.1 -23.9 -2.8 -38.8 -10.6 -58.5 -11.1 -27.9 -30.2 -52.1 -53.3 -67.4 -11 -7.3 -26.8 -15 -37.8 -18.4 -4.5 -1.5 -9.3 -3 -10.6 -3.5 l-2.3 -0.9 0.6 -27.7 c0.4 -15.3 0.9 -27.9 1.1 -28.2 0.3 -0.2 6.2 1 13.1 2.7 43.7 10.9 86.5 39.2 114.5 75.7 12.5 16.2 23.5 36.8 30.4 56.5 8.2 23.6 13.4 63.5 10.9 82.4 l-0.7 4.6 -27.6 0 -27.6 0 -0.1 -17.3z"/>
  <path d="M728.7 508.8 c-0.6 -23.4 -1.9 -34.8 -6.3 -52.8 -11.3 -46.1 -31.7 -83.4 -63.7 -116.6 -22.6 -23.4 -46.3 -40.8 -75.2 -55 -23.8 -11.7 -55.3 -21.8 -77.6 -24.9 -4.6 -0.6 -4.7 -0.7 -5.3 -4.8 -0.7 -5.5 -0.7 -42.1 0 -46.9 0.5 -3.4 0.9 -3.8 3.6 -3.8 5.5 0 28 4.1 41.8 7.6 57.3 14.7 106.6 42.8 148.6 84.8 15.4 15.5 22 23.4 34.1 40.6 36.7 52.3 56.2 114.6 56.3 179.8 l0 14.2 -27.9 0 -27.8 0 -0.6 -22.2z"/>
  <path d="M841 519.8 c0 -14.3 -1.6 -35.3 -4 -53.3 -8 -60.1 -36.2 -124.7 -76.5 -175 -10.7 -13.3 -34.4 -37.6 -48 -49 -51.4 -43.2 -112.4 -71 -180.8 -82.5 -9.5 -1.6 -20.2 -3.2 -23.9 -3.5 l-6.7 -0.7 -0.6 -4.2 c-0.3 -2.2 -0.4 -14.4 -0.2 -27.1 l0.2 -23 7 0.3 c26.2 1 66.7 8.9 99.5 19.3 64.5 20.6 126.7 59.5 172.6 107.9 20.2 21.3 31.4 35 45.2 55.3 44.7 65.8 71.2 151.4 71.2 229.9 l0 16.8 -27.5 0 -27.5 0 0 -11.2z"/>
  <path d="M247.1 392.1 c-1.2 -0.8 -1.6 -6.1 -1.9 -29 -0.3 -15.5 -0.8 -28.1 -1.1 -28.1 -0.4 0 -11.3 6.4 -24.2 14.1 -12.9 7.8 -25.3 15.3 -27.7 16.7 -2.4 1.3 -4.6 3.1 -4.9 3.8 -0.3 0.8 -1.3 1.4 -2.2 1.4 -1 0 -13.2 -6.8 -27.2 -15 -23.3 -13.8 -25.4 -15.3 -25.4 -17.8 0 -2.5 1.9 -3.9 22.5 -16.1 12.4 -7.4 49.1 -29.3 81.7 -48.7 32.5 -19.5 59.9 -35.7 60.8 -36.1 1 -0.3 2.1 0 2.6 0.8 0.5 0.8 0.9 16.4 0.9 34.7 0 21.4 0.4 33.2 1 33.2 1.9 0 0.9 5.5 -1.9 10.5 -1.5 2.8 -5 8.8 -7.6 13.5 -7.4 13.2 -31.5 55.1 -34.2 59.3 -2 3.2 -2.8 3.7 -6.1 3.7 -2 0 -4.3 -0.4 -5.1 -0.9z"/>
  <path d="M412.7 268.9 c-0.3 -3.8 -0.3 -9.2 0 -12 0.4 -3.1 0.2 -4.9 -0.4 -4.9 -0.6 0 -1.4 -1.5 -1.7 -3.4 -0.4 -1.9 -1.1 -3.6 -1.6 -3.8 -0.5 -0.2 -0.6 -6.4 -0.1 -15.1 0.9 -19.6 0.7 -21.3 -3 -22.1 -2.6 -0.5 -2.9 -0.9 -2.9 -4.6 0 -2.2 0.5 -4 1 -4 1.5 0 1.2 -6.9 -0.3 -8.5 -0.7 -0.7 -2.2 -1.4 -3.3 -1.7 -1.3 -0.2 -2 -1.3 -2.2 -3.3 -0.2 -1.7 -0.8 -3.4 -1.3 -4 -2.5 -2.5 -0.6 -4.6 9.9 -10.9 5.9 -3.5 19.7 -11.8 30.7 -18.5 10.9 -6.6 20 -11.9 20.1 -11.8 0.1 0.1 0.4 14.5 0.8 31.9 0.7 30.8 0.6 31.7 -1.3 33.5 -1.1 1 -9.5 6.3 -18.6 11.8 l-16.5 9.9 0 21.2 c0 24.5 -0.6 27.4 -5.5 27.4 l-3.2 0 -0.6 -7.1z"/>
 </g>
 <g fill="#169488">
  <path d="M511.5 918.7 c-1.9 -1.5 -1.3 -3.7 1 -3.7 2 0 0.9 -55.7 -1.1 -57.8 -0.8 -0.7 -1.4 -2 -1.4 -2.8 0 -1.2 0.4 -1.2 2 -0.4 2.4 1.3 1.6 1.7 30.3 -15.2 12.2 -7.2 25.8 -15.2 30.2 -17.8 7.3 -4.2 52.2 -30.6 110.5 -65 12.4 -7.3 27.9 -16.4 34.5 -20.3 15 -8.7 40.9 -24 62.5 -36.7 9.1 -5.4 23.5 -13.8 32 -18.8 8.5 -5 17.4 -10.3 19.8 -11.6 l4.2 -2.6 0 -44 0 -44 2.8 0 2.7 0.1 -2.2 1.8 -2.3 1.9 0 42.6 0 42.6 5.1 2.8 c2.8 1.5 11.7 6.6 19.7 11.3 21.8 12.7 27 15.5 27.7 14.7 0.4 -0.4 0.9 -26.5 1.1 -58 0.4 -53.4 0.4 -57.4 -1.3 -58.5 -1.5 -1.2 -1.5 -1.3 0.5 -1.3 l2.2 0 -0.2 59.7 -0.3 59.7 -8.5 5.2 c-4.7 2.8 -20.9 12.4 -36 21.4 -15.1 8.9 -34.5 20.4 -43 25.5 -8.5 5.1 -17.1 10.2 -19.1 11.3 -1.9 1.1 -21.3 12.4 -43 25.2 -21.7 12.8 -47 27.8 -56.4 33.3 -9.3 5.5 -19.8 11.7 -23.2 13.9 -3.4 2.1 -6.5 3.8 -6.7 3.8 -0.3 0 -4.7 2.5 -9.8 5.6 -10 6.1 -20 12 -84.2 49.8 -39.2 23.1 -47 27.6 -47.9 27.6 -0.2 0 -1.1 -0.6 -2.2 -1.3z"/>
  <path d="M513.5 801.1 c-0.9 -0.8 -23.5 -14.1 -72.7 -42.8 -7.1 -4.1 -12.8 -7.8 -12.8 -8.2 0 -0.7 19.3 -33.9 24.3 -41.8 1.5 -2.4 3.1 -4.3 3.7 -4.3 1 0 3.9 1.6 21.5 12.1 7.2 4.2 18.5 10.8 25.2 14.6 l12.1 7 8.7 -5 c4.7 -2.7 8.8 -4.7 9.1 -4.4 0.3 0.2 -3.5 2.7 -8.3 5.4 l-8.8 5 -0.3 30.3 c-0.2 29.9 -0.2 30.2 1.9 30.7 1.6 0.4 1.7 0.8 0.7 1.4 -1.7 1.1 -3.2 1.1 -4.3 0z"/>
  <path d="M304.5 797.5 c-1.1 -0.6 -11.6 -6.8 -23.2 -13.6 -11.7 -6.8 -21.2 -12.8 -21 -13.4 0.2 -0.5 2.2 -1.1 4.4 -1.3 3.2 -0.2 4.7 0.2 6.7 2.1 1.4 1.3 2.6 3.1 2.6 3.8 0 1.8 5 4.9 25 15.5 3.9 2.1 5.1 3.4 4.4 4.6 -0.3 0.4 0.2 0.5 1 0.2 1 -0.4 1.8 0.1 2.2 1 0.9 2.3 0.3 2.6 -2.1 1.1z"/>
  <path d="M536.4 726.1 c0.9 -1.4 9.6 -6.3 10.6 -5.9 0.5 0.2 -1.8 1.8 -5.1 3.6 -3.3 1.8 -5.8 2.8 -5.5 2.3z"/>
  <path d="M550.7 717.9 c1.2 -1.2 2.5 -2 2.8 -1.7 0.3 0.3 -0.7 1.3 -2.2 2.3 l-2.8 1.7 2.2 -2.3z"/>
  <path d="M555.5 715.2 c1.7 -1.7 34.7 -20.4 35.2 -19.8 0.3 0.2 -1.5 1.5 -3.9 2.7 -2.3 1.2 -5.4 3 -6.8 3.9 -4.5 3.2 -26 14.8 -24.5 13.2z"/>
  <path d="M143.5 703.1 l-11 -6.6 0 -180.5 0 -180.5 22.5 -13.4 c12.4 -7.3 39.7 -23.7 60.7 -36.2 21 -12.6 38.6 -22.9 39 -22.9 0.4 0 -2.1 1.9 -5.7 4.2 -3.6 2.2 -7.6 4.9 -9 5.8 -1.4 1 -4.4 2.7 -6.6 3.8 -2.2 1.1 -4.6 2.8 -5.3 3.6 -0.8 0.9 -1.9 1.6 -2.7 1.6 -0.7 0 -5.3 2.5 -10.1 5.5 -9.8 6 -19.5 11.8 -25.7 15.3 -2.2 1.3 -5.3 3.6 -6.8 5.2 -1.5 1.7 -3.1 3 -3.5 3.1 -0.4 0 -1.7 0.2 -2.8 0.3 -1.1 0.1 -5.7 2.6 -10.3 5.4 -4.6 2.9 -8.5 5.2 -8.7 5.2 -0.2 0 -4 2.3 -8.4 5 -4.4 2.8 -8.4 5 -8.8 5 -0.5 0 -2.1 1.1 -3.7 2.4 l-3 2.3 2.5 1.5 c6.6 4.2 46.8 27.8 49 28.8 l2.4 1.1 -0.3 148.3 -0.2 148.4 5.5 3.1 c3 1.7 5.5 3.6 5.5 4.2 0 1.1 -5.4 0.8 -9.5 -0.5 -1.9 -0.7 -14.4 6.1 -38.1 20.5 l-7.2 4.3 4.3 3 c2.4 1.7 5.1 3.6 6 4.1 1.1 0.6 1.6 2 1.3 3.6 l-0.3 2.7 -11 -6.7z"/>
  <path d="M592 694.6 c0 -0.6 5 -3.9 12 -7.8 2.5 -1.4 8 -4.6 12.3 -7.3 4.3 -2.6 8 -4.5 8.3 -4.3 0.4 0.5 -18.1 11.8 -19.3 11.8 -0.4 0 -1.4 0.6 -2.2 1.4 -2.3 1.9 -11.1 6.9 -11.1 6.2z"/>
  <path d="M229.6 679.8 c-0.3 -1.3 -0.6 -36.4 -0.6 -78 0 -75.1 0 -75.8 2 -75.8 2 0 2 0.7 2 78 0 65.7 -0.2 78 -1.4 78 -0.7 0 -1.6 -1 -2 -2.2z"/>
  <path d="M627 673.7 c0.8 -0.8 3.5 -2.6 6 -3.9 2.5 -1.4 6.9 -3.9 9.8 -5.7 2.9 -1.7 5.8 -3.1 6.5 -3.1 0.7 0 -2.4 2.1 -6.8 4.6 -4.4 2.5 -10 5.7 -12.5 7.1 -2.5 1.4 -3.8 1.9 -3 1z"/>
  <path d="M652.3 659.3 c0.8 -1.2 9.1 -6.3 10.3 -6.3 1.3 0 -0.8 1.5 -6 4.6 -2.7 1.5 -4.7 2.3 -4.3 1.7z"/>
  <path d="M665.9 651.1 c1.3 -1.2 2.8 -2.1 3.5 -2.1 1.2 0 -0.5 1.4 -3.9 3.1 -1.6 0.8 -1.5 0.6 0.4 -1z"/>
  <path d="M671.4 648.2 c0.7 -1.1 9 -6.2 10.2 -6.2 1.4 0 -0.9 1.7 -6 4.5 -2.6 1.5 -4.6 2.2 -4.2 1.7z"/>
  <path d="M685.3 639.5 c1.5 -1.4 3.2 -2.5 3.8 -2.5 1.7 0 0.9 0.8 -2.8 2.9 l-3.8 2.2 2.8 -2.6z"/>
  <path d="M618 632.5 c12.5 -13.5 24.3 -32.5 28.5 -45.8 l2.3 -7.2 -33.6 -0.5 -33.7 -0.5 -12.5 -7.2 c-6.9 -3.9 -15.9 -9.1 -20 -11.5 -7.2 -4.2 -18.8 -10.3 -35.7 -19 -7.7 -3.9 -8.5 -4.2 -11.5 -3 l-3.3 1.2 2.5 -2 c3.1 -2.4 3.9 -2.2 17 4.7 18.3 9.7 25.1 13.4 42.5 23.3 9.4 5.4 18.4 10.5 20.2 11.4 2.8 1.4 7.6 1.6 36.3 1.6 28 0 33 0.2 33 1.4 0 3.1 -6.3 18.5 -10.7 26.1 -6.1 10.8 -13.7 20.6 -22.4 29 l-7.3 7 8.4 -9z"/>
  <path d="M691.3 636.4 c0.4 -0.6 3.8 -3 7.6 -5.3 3.8 -2.3 7.6 -5 8.6 -6.1 3 -3.3 10.5 -26.2 13.5 -41.2 1 -5 1.4 -5.8 3.3 -5.7 1.5 0.1 1.7 0.3 0.6 0.6 -1.2 0.3 -2.4 3.7 -4.3 11.6 -2.9 12.1 -9.3 31.1 -11.9 35 -0.9 1.3 -4.2 3.9 -7.4 5.7 -3.2 1.8 -6.9 4 -8.3 4.9 -1.3 0.9 -2.1 1.1 -1.7 0.5z"/>
  <path d="M283 550.6 l0 -56.5 -4.2 -2.9 c-2.4 -1.5 -11 -6.8 -19.3 -11.7 -8.2 -4.8 -17.4 -10.3 -20.2 -12.2 l-5.3 -3.3 0 7.5 c0 6.8 -0.2 7.5 -2 7.5 -1.9 0 -2 -0.7 -2 -10.7 l0 -10.8 5.3 -2.9 c5.7 -3.2 33.7 -19.6 59.7 -35.1 9.1 -5.4 19 -11.3 22 -13 3 -1.8 16.1 -9.5 29 -17.2 12.9 -7.7 31.2 -18.4 40.5 -23.8 9.4 -5.4 18.1 -10.6 19.5 -11.5 5.6 -3.9 51.1 -30 52.3 -30 0.4 0 0.6 14.1 0.5 31.3 l-0.3 31.2 -20 12.3 c-11 6.7 -22.2 13.5 -25 15 -6.4 3.6 -91.2 54.9 -111.2 67.3 l-15.3 9.4 0 56 c0.1 46.8 0.3 55.7 1.4 54.3 2.3 -3 3.7 -2.2 3.4 2 -0.3 3.6 -0.4 3.7 -4.5 4 l-4.3 0.3 0 -56.5z"/>
  <path d="M347 601.9 c0 -3 0.8 -5.1 2.9 -7.8 3 -3.7 3.2 -6.7 1.1 -11.6 -0.5 -1.1 -1.6 -3.7 -2.4 -5.7 -1.1 -2.7 -2.1 -3.8 -3.5 -3.8 -1.6 0 -2.1 -0.6 -2.1 -2.9 0 -1.6 -0.6 -3.1 -1.5 -3.5 -0.8 -0.3 -1.5 -1.5 -1.5 -2.6 0 -1.4 -0.7 -2 -2.4 -2 -2 0 -2.5 -0.6 -3.1 -3.9 -0.6 -3.5 -1 -3.9 -4.3 -4.5 -6.1 -1 -8.2 -0.7 -9 1.2 -0.4 0.9 -4 7.2 -8.1 14 -6.7 11 -7.6 12.2 -10.2 12.2 l-2.9 0 4.6 -7.7 c2.5 -4.3 13.4 -22.5 24.1 -40.5 l19.6 -32.7 14.1 -8.4 c7.8 -4.6 18.6 -11.1 24.1 -14.4 5.5 -3.3 26.9 -16.1 47.5 -28.3 20.6 -12.3 43.6 -26.1 51.2 -30.6 7.5 -4.6 13.9 -8 14.2 -7.7 0.3 0.4 0.6 14.7 0.6 31.9 0 31.2 0 31.3 -2.2 32.8 -1.2 0.9 -2.6 1.6 -3 1.6 -1.4 0 -0.8 -3.8 0.7 -4.4 2.3 -0.8 2.2 -51.7 -0.1 -54 -2.6 -2.6 -5.3 -1.9 -14.8 4.1 -5 3.1 -11.6 7 -14.6 8.6 -3 1.7 -10.7 6.2 -17 10 -6.3 3.8 -14 8.4 -17 10.2 -3 1.7 -9.7 5.8 -14.8 8.9 -5.1 3.1 -13.7 8.2 -19 11.3 -5.3 3 -11.3 6.5 -13.2 7.7 -12.3 8 -15.1 9.7 -20.9 12.7 -10 5.3 -10.6 5.7 -12.6 7.8 -1.7 2 -1.5 2.4 16.1 20.5 9.9 10.1 18.9 18.7 20.2 19.1 2.3 0.7 2.3 0.8 0.4 2.9 -1 1.1 -7.7 11.6 -14.7 23.1 -7 11.6 -15.5 25.4 -18.7 30.8 -3.3 5.3 -6.4 9.7 -6.9 9.7 -0.5 0 -0.9 -1.8 -0.9 -4.1z"/>
  <path d="M420 583.8 c2.1 -2.1 17.1 -11 17.7 -10.5 0.4 0.4 -11.9 8.3 -16.7 10.7 -2.2 1.1 -2.3 1.1 -1 -0.2z"/>
  <path d="M849 578.1 c0 -0.5 4.5 -0.9 10 -0.9 5.5 0 10 0.4 10 0.9 0 0.5 -4.5 0.9 -10 0.9 -5.5 0 -10 -0.4 -10 -0.9z"/>
  <path d="M440.9 571 c1.3 -1.1 3 -2 3.9 -2 1.9 0 1.5 0.3 -2.8 2.4 l-3.5 1.7 2.4 -2.1z"/>
  <path d="M449.9 566 c1.3 -1.1 2.7 -2 3.2 -2 1.8 0 0.8 1 -2.3 2.5 l-3.3 1.6 2.4 -2.1z"/>
  <path d="M455.4 563.2 c0.7 -1.2 9.1 -6.2 10.3 -6.2 0.4 0 -0.1 0.8 -1.2 1.6 -2.9 2.3 -9.8 5.7 -9.1 4.6z"/>
  <path d="M474.7 551.9 c1.2 -1.2 2.5 -2 2.8 -1.7 0.3 0.3 -0.7 1.3 -2.2 2.3 l-2.8 1.7 2.2 -2.3z"/>
  <path d="M481 548.1 c1.4 -1.1 3.4 -2.4 4.5 -2.7 1.1 -0.4 2.8 -1.3 3.7 -2.1 0.9 -0.8 2.2 -1.3 2.8 -1.1 0.6 0.2 -2.2 2.1 -6.2 4.2 -4 2.1 -6.2 2.8 -4.8 1.7z"/>
  <path d="M665 530 c0 -0.5 0.9 -1 1.9 -1 1.7 0 1.9 -0.9 2.1 -7.7 0.2 -4.3 0.3 -9.3 0.2 -11 0 -1.8 0.4 -3.3 0.9 -3.3 1 0 1.2 12.4 0.3 19.4 -0.6 4 -1 4.6 -3 4.6 -1.3 0 -2.4 -0.4 -2.4 -1z"/>
  <path d="M729 517 c0 -8.4 0.4 -14 1 -14 0.6 0 0.7 5 0.4 13.5 l-0.6 13.5 25.5 0 c21.4 0 25.7 -0.2 26.7 -1.5 1.7 -2.1 3 -1.9 3 0.5 0 2 -0.7 2 -28 2 l-28 0 0 -14z"/>
  <path d="M614.8 515.9 c0.2 -7.1 0.7 -9.9 1.5 -9.6 0.7 0.2 1.2 1.3 1.1 2.5 0 1.2 -0.1 5.6 -0.2 9.7 -0.1 5.2 -0.6 7.5 -1.4 7.5 -1 0 -1.2 -2.5 -1 -10.1z"/>
  <path d="M246 397.7 c0 -5.2 2.4 -9 5 -8.2 1.4 0.5 2.5 -0.3 4.3 -3.2 2.6 -4.2 26.8 -46.1 34.2 -59.3 2.6 -4.7 6.1 -10.7 7.6 -13.5 2.2 -3.9 2.9 -6.3 2.9 -10.7 0 -3.7 -0.4 -5.8 -1.2 -5.8 -0.8 0 -0.9 -5.2 -0.4 -19.9 0.7 -19.4 0.1 -33.6 -1.4 -36.1 -0.5 -0.9 -2.9 0 -8.6 3.1 -9.2 4.9 -17.1 9.9 -16 9.9 1.3 0 -1.8 2.6 -5.1 4.3 -1.7 0.9 -3.3 1.4 -3.6 1 -0.3 -0.3 -2.3 0.5 -4.3 1.8 -2.1 1.2 -3.5 1.8 -3.1 1.2 0.5 -0.8 17.4 -11.2 28.9 -17.8 0.9 -0.5 4.5 -2.7 7.8 -4.7 3.4 -2.1 6.6 -3.8 7.1 -3.8 0.5 0 0.9 14.2 0.9 35.1 0 31.4 0.2 35.1 1.6 34.5 0.8 -0.3 7.7 -4.4 15.2 -9 7.5 -4.7 21.1 -12.9 30.2 -18.4 l16.5 -9.9 0.3 -36.4 0.3 -36.4 22.6 -13.5 c12.4 -7.4 24.1 -14.3 25.9 -15.3 3.3 -1.7 3.4 -1.7 3.4 0.3 0 1.1 -0.7 2 -1.5 2 -0.8 0 -2.4 0.8 -3.4 1.7 -3.5 3.2 -5.1 4.4 -5.1 3.8 0 -0.3 -1.3 0.1 -3 1 -1.6 0.8 -3.2 1.5 -3.5 1.5 -1.2 0 -0.5 1.5 0.9 2 1 0.3 0.2 1.1 -2.5 2.4 -2.2 1.1 -5.3 3.2 -6.9 4.8 -1.7 1.5 -3.3 2.8 -3.7 2.8 -2 -0.1 -15.3 7.5 -15.3 8.7 0 0.7 -0.9 1.3 -2 1.3 -2 0 -2 0.7 -2 31 l0 31 2.9 0 c2.7 0 2.8 0.2 3.5 6.3 0.3 3.4 0.3 16 0 27.9 -0.5 18 -0.4 21.8 0.7 22.2 0.8 0.2 3.1 0.7 5.2 1.1 2 0.3 3.7 1 3.7 1.5 0 0.4 -2.1 2 -4.7 3.5 -2.7 1.5 -14.5 8.5 -26.3 15.5 -11.8 7 -32.1 18.9 -45 26.5 -12.9 7.6 -28.9 17.1 -35.5 21 -12.9 7.8 -26.4 15.5 -27.1 15.5 -0.2 0 -0.4 -1.9 -0.4 -4.3z"/>
  <path d="M245.6 382.4 c-0.3 -2.6 -0.6 -9.3 -0.6 -15 0 -8.6 0.3 -10.4 1.5 -10.4 0.8 0 1.5 0.7 1.5 1.5 0 0.8 -0.5 1.5 -1.1 1.5 -1.6 0 -0.7 22.6 0.9 24.2 1.6 1.6 1.5 2.8 -0.2 2.8 -0.8 0 -1.6 -1.7 -2 -4.6z"/>
  <path d="M584.7 348.4 c-1.6 -0.9 -2.6 -2.1 -2.4 -2.8 1.2 -3 -33.8 -22 -51.4 -27.9 -10.5 -3.6 -22.7 -6.7 -26.1 -6.7 -2.4 0 -2.8 0.4 -2.9 2.8 0 2.3 -0.1 2.4 -0.8 0.7 -1 -2.4 -0.3 -5.5 1.3 -5.5 3.6 0 26.8 6.7 36.6 10.6 18.2 7.3 45.9 23.2 44.4 25.6 -0.4 0.7 -0.3 0.8 0.4 0.4 1.2 -0.7 6.2 2.1 6.2 3.5 0 1.3 -2.1 1 -5.3 -0.7z"/>
  <path d="M415 299.6 c0 -1.3 0.7 -2.9 1.5 -3.6 1 -0.8 1.5 -3.1 1.5 -6.6 0 -4.7 0.2 -5.4 2 -5.4 1.8 0 2 0.7 2 6.9 0 6.3 -0.2 7.1 -2.6 9 -3.4 2.7 -4.4 2.6 -4.4 -0.3z"/>
  <path d="M570 278 c-15.3 -6.9 -47.9 -16.2 -64.1 -18.5 -4.6 -0.6 -4.7 -0.7 -5.3 -4.8 -0.7 -5.5 -0.7 -42.1 0 -46.9 0.5 -3.6 0.8 -3.8 4.2 -3.8 4.7 0 8.2 1 8.2 2.2 0 0.6 -0.7 0.7 -1.7 0.2 -1 -0.4 -3.5 -0.9 -5.5 -1.2 l-3.8 -0.4 0 26.6 c0 14.6 0.3 26.6 0.8 26.6 9.3 0.1 42.1 8.6 58.9 15.3 3.4 1.4 6.4 2.3 6.7 2 0.9 -1 9.6 3 9.6 4.3 0 1.8 -0.4 1.8 -8 -1.6z"/>
  <path d="M455.5 205.7 c1.5 -2.3 1.8 -5 1.9 -14.3 0.1 -6.3 0.4 -11.4 0.9 -11.4 0.9 0 0.9 23.2 -0.1 24.5 -0.4 0.6 -1.6 1.7 -2.6 2.5 -1.9 1.5 -1.9 1.5 -0.1 -1.3z"/>
  <path d="M418 165 c0 -1.3 4.9 -4.4 5.7 -3.6 0.3 0.3 0.2 0.6 -0.4 0.6 -0.6 0 -1.3 0.9 -1.6 2 -0.5 2 -3.7 2.9 -3.7 1z"/>
  <path d="M428.5 157.9 c0.4 -0.6 20 -12.6 28.8 -17.6 0.4 -0.2 0.7 1 0.7 2.8 0 3 -0.1 3.1 -1.8 1.6 -1.6 -1.5 -2.1 -1.3 -7.2 2.1 -6.5 4.4 -21.2 12.4 -20.5 11.1z"/>
  <path d="M500.1 123.5 c-0.2 -23.9 -0.4 -23.3 6.4 -22.1 4.4 0.9 4.5 2.4 0.3 2.8 l-3.3 0.3 -0.3 20.3 c-0.2 16.3 -0.5 20.2 -1.6 20.2 -1.1 0 -1.4 -4 -1.5 -21.5z"/>
 </g>
 <g fill="#14ab97">
  <path d="M485 903.3 c-14.6 -8.5 -33 -19.4 -41 -24.1 -8 -4.7 -20.6 -12.1 -28 -16.5 -7.4 -4.3 -35.1 -20.5 -61.5 -35.9 -26.4 -15.4 -48.7 -28.8 -49.5 -29.7 -0.8 -0.9 -2.3 -2 -3.3 -2.4 -3.9 -1.5 -30.8 -17.8 -32.6 -19.9 -1.1 -1.2 -3.3 -2.2 -4.9 -2.3 -1.6 -0.1 -8.2 -3.3 -14.8 -7.2 -6.5 -3.8 -26.1 -15.3 -43.4 -25.5 -51 -30 -52.3 -30.8 -58 -34.9 -3 -2.2 -7 -4.7 -8.8 -5.6 -1.8 -0.8 -3.1 -2.1 -2.9 -2.7 0.4 -1.2 10.3 -7.3 34.4 -21.2 l16.1 -9.4 5.9 2.7 c3.2 1.5 12.4 6.4 20.4 11 8 4.6 15.2 8.3 15.9 8.3 1 0 1.2 -20.2 1 -103.7 -0.1 -57.1 0.2 -108.5 0.6 -114.3 1 -12.3 1 -12.3 10.9 -6.1 3.3 2.1 12.8 7.7 21 12.6 8.3 4.9 16.9 10.2 19.3 11.7 l4.2 2.9 0 56.5 c0 42.5 0.3 56.5 1.2 56.2 0.6 -0.2 1.2 -1.1 1.3 -1.9 0.3 -1.9 6.6 -13.2 10.9 -19.4 4.2 -6.1 17.6 -28 19.5 -31.8 1.1 -2.2 1.6 -2.5 2.8 -1.6 0.7 0.7 1.5 1 1.6 0.8 0.1 -0.2 0.9 -1.6 1.7 -3.1 0.7 -1.6 2 -2.8 2.8 -2.8 0.9 0 1.2 0.3 0.9 0.7 -0.4 0.3 -0.2 1.2 0.4 2 0.9 1 0.8 1.3 -0.2 1.3 -1.1 0 -1.1 0.2 0.1 0.9 0.8 0.6 1.8 0.7 2.2 0.5 0.4 -0.3 0.8 0 0.8 0.7 0 0.7 0.8 0.5 2 -0.6 1.6 -1.4 2.3 -1.6 3.2 -0.7 0.9 0.9 0.9 1.2 -0.1 1.2 -1 0 -1.1 0.3 -0.2 1.4 0.6 0.8 1.1 1.8 1 2.2 -0.5 2.8 0.2 5.5 1.4 5.1 0.6 -0.2 1.1 -0.9 1 -1.5 -0.2 -0.6 0.4 -0.9 1.2 -0.6 0.9 0.4 2.1 0.1 2.8 -0.5 1.1 -0.8 1.3 -0.4 1.2 2 -0.1 1.7 -0.7 3.4 -1.5 3.9 -1.8 1.1 2.2 3.2 4.7 2.4 1.5 -0.5 1.5 -0.3 -0.2 0.8 -1.1 0.7 -2.1 2.1 -2.3 3 -0.2 1.3 0.4 1.6 3 1.3 2.4 -0.3 2.9 -0.2 1.8 0.5 -1.1 0.7 -1.1 1 -0.2 1 0.7 0 1 0.5 0.7 1 -0.3 0.6 0.2 1 1.2 1 1.3 0 1.5 0.3 0.5 0.8 -0.9 0.7 -1 1.5 -0.3 3.5 0.6 1.5 1.4 2.7 1.9 2.7 0.5 0 1.4 1.1 2 2.5 1 2.1 0.9 2.5 -0.4 2.5 -1.1 0 -1.2 0.5 -0.6 1.8 1.4 2.8 0.7 5.7 -2.4 9.7 -1.5 2 -2.9 4.6 -3.1 5.7 -0.2 1.1 -9.3 16.9 -20.2 35.1 -17.8 29.8 -23.7 39.8 -42.7 72.4 -3 5.1 -5.4 9.4 -5.4 9.7 0 0.5 0.9 1.1 20.7 12.5 7.8 4.6 14.6 8 15.2 7.7 0.5 -0.3 2.1 -2.7 3.7 -5.4 1.5 -2.6 7 -12.1 12.4 -21.2 5.3 -9.1 15.2 -25.9 22 -37.5 6.8 -11.5 14.6 -24.9 17.4 -29.7 2.8 -4.8 5.7 -8.8 6.3 -8.8 1.8 0 0.1 3.6 -6.3 13.5 -2.8 4.4 -7.3 11.8 -9.9 16.5 -6.7 11.9 -15.6 26.1 -17.7 28.4 -1 1.1 -1.8 2.6 -1.8 3.3 0 1.8 -5.6 12.1 -10.7 19.8 -2.2 3.3 -5.7 9.2 -7.6 13 -4.6 8.8 -5.9 10.5 -8.5 10.5 -2.2 0 -10.5 -4.5 -19.2 -10.3 -3 -2 -5.9 -3.7 -6.5 -3.7 -0.5 -0.1 -3.2 -1.1 -6 -2.4 l-5 -2.3 -1.1 2.6 c-1.1 2.7 -3.9 25.9 -5 41.6 l-0.6 9 4.4 2.7 c2.3 1.4 7.2 4.2 10.8 6.1 12 6.4 13.3 7.2 15.6 9.3 1.2 1.1 6.7 4.4 12.1 7.4 10.1 5.4 14.1 7.8 22.8 13.2 2.8 1.7 10.5 6.1 17.3 9.9 6.7 3.7 14.8 8.4 18 10.4 5 3.2 26.5 16.1 36.2 21.8 11.8 6.8 24.6 13.7 25.7 13.7 0.7 0 1.3 0.4 1.3 1 0 0.5 1.9 1.9 4.3 3.1 2.3 1.2 4.4 2.5 4.7 2.8 0.9 1.1 21.6 13.1 22.7 13.1 0.5 0 1.8 0.9 2.7 1.9 1 1.1 3.2 2.5 4.9 3.2 1.8 0.7 5.7 2.9 8.7 4.8 3.1 2 6.4 4.2 7.5 4.9 1.1 0.6 4.8 2.5 8.2 4.1 3.3 1.7 6.4 3.5 6.8 4 0.3 0.6 1.7 1.1 3.1 1.1 1.7 0 2.4 0.5 2.4 2 0 1.1 -0.6 2 -1.2 2 -0.7 0 -13.2 -7.1 -27.8 -15.7z m-198.9 -196.3 c1.7 -3.6 3.8 -7.4 4.8 -8.5 2 -2.3 8.8 -13.7 12.3 -20.6 1.2 -2.6 4.5 -8 7.2 -12 7.1 -10.7 11.8 -22.3 8.9 -21.8 -2 0.3 -3.4 -0.2 -2.9 -1 0.6 -0.8 -1.4 -2.1 -4.1 -2.7 -1.9 -0.4 -8.3 -7.2 -8.3 -8.8 0 -0.8 0.5 -1.8 1 -2.1 1.6 -1 1.1 -2.1 -1.5 -3.3 -1.7 -0.8 -2.5 -0.8 -2.5 -0.1 0 0.6 -0.5 0.7 -1.1 0.3 -0.7 -0.4 -0.1 -1.5 1.7 -3 1.5 -1.3 2.5 -2.5 2.3 -2.7 -3.2 -1.9 -5.1 -2.7 -6.4 -2.7 -0.8 0 -1.5 -0.9 -1.5 -1.9 0 -1.1 -0.5 -2.1 -1.1 -2.3 -0.6 -0.2 -1.2 -2.2 -1.3 -4.5 0 -2.8 -0.4 -3.9 -1.3 -3.6 -0.7 0.3 -1.3 0.9 -1.3 1.5 0 0.5 -0.5 0.6 -1.2 0.2 -0.7 -0.4 -0.8 -0.3 -0.4 0.4 0.4 0.7 0.3 2.8 -0.3 4.7 -0.8 3 -0.7 3.5 0.7 3.5 1.6 0.1 1.6 0.1 0 1 -2 1.2 -2.5 3.7 -3.3 15 -0.3 4.7 -0.8 9.9 -1 11.5 -0.2 1.7 -0.6 7.3 -1 12.5 -0.4 5.2 -0.9 10.6 -1.1 12 -0.2 1.4 -0.9 10.2 -1.4 19.5 -0.6 9.4 -1.2 18.4 -1.5 20 -0.3 1.7 -0.7 4.8 -1 7 l-0.5 4 2 -2.5 c1.1 -1.4 3.3 -5.4 5.1 -9z"/>
  <path d="M513.2 876.7 c-0.1 -12.7 -0.6 -18.2 -1.4 -19 -1.1 -1.1 -3.7 -2.8 -14.3 -9.5 -1.1 -0.6 -3.1 -1.7 -4.4 -2.2 -1.3 -0.6 -4.2 -2.3 -6.5 -3.9 -4.2 -2.9 -22.1 -13.6 -26.6 -15.9 -2.7 -1.4 -4.3 -2.3 -10.7 -6.5 -2.4 -1.5 -4.5 -2.7 -4.7 -2.7 -0.6 0 -6.5 -3.5 -18.4 -10.9 -4.6 -2.8 -8.7 -5.1 -9 -5.1 -0.4 0 -1.8 -0.9 -3.2 -2 -1.4 -1.1 -3 -2 -3.7 -2 -0.6 0 -5.8 -3.1 -11.5 -6.9 -5.7 -3.7 -14.1 -8.8 -18.8 -11.1 -4.7 -2.3 -8.7 -4.5 -9 -4.9 -0.3 -0.4 -1.7 -1.4 -3.2 -2.4 -3.6 -2.3 -3.5 -4 0.7 -9.8 1.8 -2.6 4.9 -7.8 6.8 -11.6 3.9 -7.9 14.5 -26.6 19.2 -33.8 1.8 -2.7 3.9 -6.3 4.7 -8 0.8 -1.6 4.7 -8.2 8.6 -14.7 3.9 -6.4 8.6 -14.5 10.5 -18 1.9 -3.4 4.6 -8.1 6 -10.2 1.5 -2.1 2.7 -4.3 2.7 -4.8 0 -0.6 1.1 -2.3 2.5 -4 1.4 -1.6 2.5 -3.6 2.5 -4.3 0 -0.7 1.9 -4.2 4.3 -7.8 2.3 -3.6 5 -7.9 5.9 -9.6 0.9 -1.7 2.4 -3.1 3.3 -3.1 0.9 0 1.4 0.3 1.2 0.8 -0.2 0.4 -4.2 7 -8.7 14.7 -4.6 7.7 -11.3 19.2 -15 25.5 -3.7 6.3 -13.4 23 -21.7 37 -11.7 19.8 -31.3 53.5 -33.9 58.1 -0.4 0.8 -4.7 -1.7 101.4 60.4 30.3 17.9 44.4 26.6 44.7 28 0.3 1.1 0.4 10.1 0.3 20 l-0.3 18 -0.3 -17.8z"/>
  <path d="M753 662.6 c2.5 -2.7 4.5 -6.6 7.1 -14.4 2.1 -5.9 4.9 -13.8 6.2 -17.5 3.5 -9.3 7.1 -22.9 8.1 -30.2 0.3 -2.2 1.3 -7.2 2.2 -11.1 1 -4 1.4 -7.9 1.1 -8.8 -0.6 -1.4 -3.9 -1.6 -27.9 -1.8 l-27.3 -0.2 18.5 -0.6 c24.6 -0.7 37.7 -0.7 38.6 0.2 1.3 1.4 -4.1 29.3 -8.6 44.3 -3.2 10.4 -13.1 37.8 -14.3 39.3 -0.6 0.7 -2.4 2 -4.1 2.9 l-3.1 1.5 3.5 -3.6z"/>
  <path d="M573.5 635.7 c-13.7 -7.7 -30.6 -17.1 -37.5 -21 -27.6 -15.4 -30.7 -16.9 -33.2 -15.6 -2.3 1.2 -2.3 1.2 -0.4 -1 2.2 -2.5 4.1 -2.6 8 -0.6 1.5 0.8 3.3 1.5 4 1.5 0.6 0 2.8 1.3 4.7 3 2 1.6 7.6 5 12.5 7.6 4.9 2.6 14.3 7.9 20.9 11.9 10.8 6.4 20.5 11.5 22.1 11.5 0.3 0 4 2.4 8.3 5.3 10.7 7.2 12.1 8 16.1 8.7 3.2 0.5 3.3 0.7 1.5 1.6 -1.7 0.9 -5.9 -1.1 -27 -12.9z"/>
  <path d="M837 580.1 c0 -1.8 1.7 -2 18.6 -2.2 24.9 -0.3 36.4 0 36.4 0.9 0 0.4 -11.5 0.6 -25.7 0.4 -16.9 -0.2 -26 0.1 -26.7 0.8 -1.3 1.3 -2.6 1.3 -2.6 0.1z"/>
  <path d="M614.4 527.3 c1.7 -9.7 1.8 -12.5 0.6 -21.8 -3.2 -26.2 -5.2 -35.1 -11.2 -50.3 -11.1 -27.9 -30.2 -52.1 -53.3 -67.4 -11 -7.3 -26.8 -15 -37.8 -18.4 -14.2 -4.5 -12.7 -2.5 -12.6 -17.1 0.1 -7.1 0.5 -19.1 0.8 -26.8 0.7 -12.8 0.8 -11.8 0.9 12.2 0.2 30.2 -0.2 28.9 9.8 28 3 -0.3 5.4 -0.1 5.4 0.3 0 0.4 1.4 1.3 3 1.9 1.7 0.5 3 0.8 3 0.6 0 -0.2 1.1 0.6 2.4 1.8 2 1.9 8.3 5.3 18.3 9.9 1.1 0.6 3.6 2.4 5.4 4.1 1.8 1.6 4.9 3.6 6.7 4.4 1.9 0.8 5.3 3.2 7.6 5.3 2.2 2.1 6.2 5.5 8.7 7.6 2.5 2.2 5.8 6 7.3 8.6 1.5 2.6 3.3 5.1 4 5.5 1.3 0.8 9.2 11.7 11.2 15.6 0.7 1.2 2.5 5 4 8.5 1.5 3.4 3.1 6.2 3.4 6.2 0.8 0 4.5 9 6.6 16 0.9 3 2 6 2.4 6.5 0.4 0.6 1.5 5.5 2.4 11 0.9 5.5 2.2 12.9 2.8 16.5 0.7 3.6 1.2 12.4 1.2 19.5 l0.1 13 25.8 0.3 c16.6 0.1 25.6 0.6 25.2 1.2 -0.4 0.6 -11 1 -27.7 1 l-27 0 0.6 -3.7z"/>
  <path d="M841 519.8 c0 -14.3 -1.6 -35.3 -4 -53.3 -8 -60.1 -36.2 -124.7 -76.5 -175 -10.7 -13.3 -34.4 -37.6 -48 -49 -51.4 -43.2 -112.4 -71 -180.8 -82.5 -9.5 -1.6 -20.2 -3.1 -23.9 -3.5 -5.7 -0.6 -6.7 -1 -7 -2.9 -0.2 -1.1 -0.2 -13.2 0 -26.8 l0.4 -24.8 7.2 0 c16.3 0 53.4 6.3 80.1 13.6 73 20 140.6 60.2 191.1 113.4 20.2 21.3 31.4 35 45.2 55.3 44.7 65.8 71.2 151.4 71.2 229.9 l0 16.8 -27.5 0 -27.5 0 0 -11.2z m51.9 8.3 c3.2 -2 -2.2 -73.7 -7 -93.1 -0.4 -1.9 -1.5 -6.7 -2.5 -10.7 -0.9 -4 -2.2 -7.7 -2.9 -8.3 -0.7 -0.6 -1.6 -3.4 -2 -6.3 -0.4 -2.9 -1.3 -6.5 -2 -8.2 -2.3 -5.3 -6.3 -18.9 -6.8 -23.1 -0.5 -3.9 -3.6 -11.4 -9.8 -23.6 -1.6 -3.1 -2.9 -6.5 -2.9 -7.5 0 -1 -0.7 -3.1 -1.5 -4.7 -0.8 -1.5 -1.5 -3.3 -1.5 -3.9 0 -0.6 -1.1 -2.7 -2.4 -4.6 -1.2 -2 -5.9 -10.1 -10.3 -18.1 -11.9 -21.6 -13.6 -24.5 -14.5 -24.8 -0.4 -0.2 -0.8 -0.8 -0.8 -1.4 0 -1.4 -19.3 -27.6 -27.4 -37.1 -7.2 -8.4 -19.4 -21.4 -30.1 -31.9 -6.7 -6.6 -7.6 -7.5 -15.5 -14.3 -3 -2.6 -6.8 -5.9 -8.5 -7.4 -4.4 -3.8 -18.9 -15.4 -21.5 -17.1 -1.2 -0.8 -4.1 -2.9 -6.4 -4.6 -2.2 -1.7 -5.4 -3.8 -7.1 -4.8 -3.4 -1.9 -4 -2.2 -15.6 -9.6 -4.7 -3 -9.9 -6.3 -11.5 -7.2 -1.6 -1 -3.6 -2.2 -4.4 -2.7 -3.5 -2.3 -36 -17.4 -40 -18.6 -1.4 -0.4 -3.8 -1.3 -5.5 -2 -1.6 -0.8 -5 -2.2 -7.5 -3.3 -2.5 -1.1 -6.5 -2.5 -9 -3.2 -2.5 -0.7 -5.4 -1.6 -6.5 -2 -2.8 -1.2 -10.2 -3.3 -22.5 -6.4 -5.8 -1.5 -11.3 -3.2 -12.2 -3.7 -1 -0.5 -3.3 -0.9 -5.1 -0.9 -1.8 0 -3.7 -0.4 -4.3 -0.8 -0.8 -0.7 -7.1 -2.1 -16.7 -3.6 -1.5 -0.3 -3.6 -0.7 -4.6 -1.1 -1 -0.3 -4.5 -0.7 -7.7 -1 -3.3 -0.2 -11.7 -0.9 -18.7 -1.6 -7.2 -0.6 -13.2 -0.7 -13.7 -0.3 -0.4 0.5 -1 11.7 -1.2 24.8 -0.3 27.2 -0.9 25.4 8.4 25.5 2.6 0.1 6.9 0.5 9.5 1 2.6 0.5 8.2 1.4 12.3 2.1 9.1 1.4 11 1.8 32.5 7 9.4 2.3 19.1 5 21.7 6.1 2.6 1 5.8 1.9 7.2 1.9 1.4 0 3.4 0.7 4.5 1.6 1.1 0.9 6.8 3.3 12.8 5.3 5.9 2 14.8 5.8 19.7 8.4 4.8 2.6 9.3 4.7 9.8 4.7 0.5 0 2.2 0.8 3.6 1.8 1.5 1 5.2 2.9 8.2 4.1 3 1.3 8.4 4.5 12 7 3.6 2.6 7.2 5 8 5.5 4.6 2.2 17 10.7 25.5 17.5 3.9 3 7.5 5.9 8 6.3 3.4 2.5 13.3 11.2 21.4 18.6 14.2 13.2 18.2 17.3 22.6 22.7 2.2 2.8 4.5 5.6 5.2 6.3 0.7 0.7 1.3 1.8 1.3 2.3 0 0.5 0.6 0.9 1.3 0.9 1.1 0 11.7 12.1 11.7 13.4 0 0.6 6.2 9.6 9.8 14.1 5.7 7.4 15.8 25.3 26.7 47.5 2.6 5.2 6.9 14 9.6 19.5 2.7 5.5 4.9 10.9 4.9 12 0 1.1 0.7 4 1.5 6.5 0.8 2.5 3.3 10.6 5.4 18 2.2 7.4 4.7 14.9 5.6 16.7 1.8 3.5 2.9 9.3 4.5 23.3 0.6 5.2 1.5 12 2 15 1.5 9.2 3.1 28.7 3.5 43 0.2 7.4 0.4 13.6 0.4 13.8 0.3 0.7 47.8 0 49 -0.7z"/>
  <path d="M781.8 528.8 c0.5 -0.7 0.9 -5.3 0.7 -10.3 -0.4 -14 -1.6 -36.6 -2.1 -40.5 -0.6 -4.7 -3.1 -20 -4.5 -27.5 -0.6 -3.3 -1.3 -6.9 -1.4 -8 -1 -7 -6.8 -26.8 -10 -34 -0.7 -1.6 -3 -7.3 -5 -12.5 -2.1 -5.2 -4.4 -10.6 -5.3 -12 -3.1 -4.7 -6.3 -10.5 -11 -19.8 -7.4 -14.6 -6.7 -13.6 -15.2 -23.2 -0.8 -0.9 -2.8 -4.1 -4.4 -7.1 -3.1 -5.8 -11.1 -16 -17.5 -22.4 -2.3 -2.2 -5.3 -5.6 -6.8 -7.6 -1.6 -2 -7.3 -7.7 -12.8 -12.5 -5.5 -4.9 -11.6 -10.6 -13.6 -12.6 -2 -2.1 -3.9 -3.8 -4.3 -3.8 -0.4 0 -4.2 -2.6 -8.4 -5.8 -4.2 -3.2 -8.7 -6.4 -9.8 -7.2 -1.2 -0.8 -5.5 -3.8 -9.5 -6.6 -4.1 -2.8 -13.5 -8.4 -20.9 -12.4 -7.4 -4 -14.6 -8 -16 -8.9 -1.4 -0.9 -5 -2.5 -8 -3.5 -3 -1 -6.8 -2.7 -8.5 -3.6 -1.6 -1 -4.6 -2.3 -6.5 -2.8 -1.9 -0.6 -6.9 -2.2 -11 -3.6 -19.4 -6.8 -39.7 -11.5 -49.6 -11.6 -4.2 0 -11.8 -3 -9.6 -3.8 2.1 -0.7 20.7 2.7 35.2 6.4 57.3 14.7 106.6 42.8 148.6 84.8 15.4 15.5 22 23.4 34.1 40.6 36.6 52.2 56.2 114.7 56.3 179.3 0 13.3 -0.1 13.7 -2.1 13.7 -1.6 0 -1.9 -0.3 -1.1 -1.2z"/>
  <path d="M669 518.7 l0.5 -6.2 0.3 5.4 c0.2 3 0 5.8 -0.5 6.2 -0.4 0.4 -0.6 -2 -0.3 -5.4z"/>
  <path d="M729.8 506.5 c-0.4 -2.7 -1 -8.4 -1.3 -12.5 -2.7 -32.1 -12.1 -65.8 -26.1 -93.3 -12.1 -23.8 -25.3 -42.3 -43.7 -61.3 -14.6 -15.2 -28.3 -26.6 -46 -38.4 -10 -6.7 -17.5 -10.9 -41.4 -23.3 -1.9 -1 -3.3 -2.1 -2.9 -2.4 0.7 -0.8 11 3.4 16.6 6.8 2.5 1.5 8.2 4.6 12.7 6.9 4.5 2.3 9.2 5.3 10.4 6.6 1.2 1.3 2.8 2.4 3.5 2.4 0.7 0 2.5 1.1 4 2.5 1.5 1.4 3.2 2.5 3.9 2.5 0.7 0 1.9 0.7 2.6 1.6 0.7 0.9 3.6 3.1 6.4 4.8 8.9 5.8 30.4 25 36.9 33.2 2.2 2.7 5.2 6.3 6.8 7.9 5.1 5.5 13.3 16.3 15.2 20.2 1.1 2.1 2.8 4.7 3.7 5.8 0.9 1.1 4.1 6.9 7 12.8 3 6 6.1 11.6 6.9 12.5 1.8 2 5 8.8 5 10.5 0 0.7 1.1 3.2 2.4 5.7 1.3 2.5 2.9 6.3 3.6 8.5 0.7 2.2 2.1 5.9 3.2 8.3 1 2.3 2.1 6.1 2.4 8.5 0.4 2.3 1.2 5.3 1.9 6.7 0.7 1.4 1.5 4.1 1.8 6 0.3 1.9 1.1 6.2 1.7 9.4 0.6 3.2 0.9 6.7 0.7 7.7 -0.3 1.1 -0.2 1.9 0.2 1.9 1.2 0 3.3 20.1 2.9 28.5 -0.3 7.7 -0.3 7.8 -1 3z"/>
  <path d="M669 505.3 c0 -7.2 -2 -21 -4.1 -28.8 -1 -3.8 -1.9 -8.6 -1.9 -10.7 0 -2 -1.3 -7.8 -3 -12.8 -1.6 -5 -3 -10 -3 -11 0 -1.7 -1.5 -5.2 -10.3 -24.4 -1.8 -3.8 -4.7 -8.3 -6.4 -10 -1.8 -1.7 -3.3 -3.6 -3.3 -4.2 0 -0.6 -0.7 -1.7 -1.6 -2.5 -0.8 -0.7 -2.4 -2.9 -3.4 -5 -4.3 -8.2 -30.4 -36.3 -39.3 -42.1 -2.3 -1.5 -4.7 -3.2 -5.3 -3.6 -0.5 -0.5 -2 -1.5 -3.2 -2.1 -3.4 -1.8 -2.6 -3.1 1.1 -1.9 6.9 2.3 28.6 22.3 41 37.8 14 17.4 25.8 38.8 33.2 60 4.4 12.9 9.1 35.6 10.5 51 1.2 14.3 1.2 15 0 15 -0.5 0 -1 -2.1 -1 -4.7z"/>
  <path d="M490.5 477.9 c2.2 -2.4 4.6 -4.7 5.3 -5.2 0.9 -0.6 1.2 -7 1.2 -26.2 0 -22.7 -0.2 -25.7 -1.7 -27.5 -1 -1.1 -2.5 -2 -3.5 -2 -1 0 -1.8 -0.4 -1.8 -0.9 0 -1 3.4 -2.1 6.8 -2.1 l2.2 0 0 29.8 c0 33.5 0.8 30.1 -8 35.6 l-4.5 2.9 4 -4.4z"/>
  <path d="M246 392.1 c0 -6.2 0.3 -8.2 1.3 -7.9 0.6 0.3 1.3 1.4 1.5 2.6 0.2 1.2 0.6 2.2 1 2.2 0.4 0 1.3 0.4 2.1 0.9 1.1 0.7 0.8 1.6 -1.5 4.7 -1.5 2.2 -3.2 4.3 -3.6 4.9 -0.4 0.5 -0.8 -2.8 -0.8 -7.4z"/>
  <path d="M195.5 362 c5.9 -6.7 12.7 -11 17.2 -11 3.6 0 3.5 0.1 -5.7 5.8 -5.2 3.2 -10.8 6.6 -12.5 7.7 -2.8 1.8 -2.7 1.6 1 -2.5z"/>
  <path d="M244.8 346.9 c-0.2 -7.2 0 -13.3 0.4 -13.5 1.6 -1 2.3 2.9 2.6 14.4 0.4 10.5 0.2 12.2 -1.1 12.2 -1.3 0 -1.6 -2.1 -1.9 -13.1z"/>
  <path d="M226.2 343 c4.3 -5.1 6.8 -6.4 10.7 -5.8 1.6 0.2 0 1.6 -6.5 5.6 l-8.6 5.3 4.4 -5.1z"/>
  <path d="M373.3 322.3 c0.4 -0.3 0.2 -1.2 -0.3 -1.8 -0.6 -0.7 -1.2 -5.7 -1.3 -11.1 -0.2 -6.4 -0.7 -9.9 -1.4 -9.9 -0.6 0 -1.5 -0.3 -1.9 -0.7 -0.4 -0.5 0.3 -0.8 1.5 -0.8 1.9 0 2.2 -0.4 1.8 -2.1 -0.3 -1.2 -0.2 -3.2 0.3 -4.4 0.7 -1.8 0.5 -2.5 -0.7 -2.9 -1.2 -0.5 -1.3 -0.9 -0.4 -2 0.7 -0.8 0.8 -1.6 0.3 -1.8 -0.6 -0.2 -0.6 -1.3 0 -2.8 1.2 -3 1.6 -10 0.6 -10 -0.4 0 -0.5 -1.8 -0.3 -4.1 0.4 -4.4 -1.1 -5 -3.1 -1.1 -0.6 1.2 -1.4 1.9 -1.7 1.5 -0.4 -0.3 -0.7 -16.8 -0.7 -36.5 0 -36 0 -36.4 3.3 -35.9 0.4 0 0.7 -0.5 0.7 -1.2 0 -0.8 1.8 -2.2 3.9 -3.3 2.2 -1 3.7 -2.3 3.4 -2.8 -0.4 -0.5 -0.2 -0.7 0.3 -0.4 1.3 0.8 5.6 -1 5 -2.1 -0.3 -0.5 0.3 -0.7 1.4 -0.4 1.3 0.3 2.7 -0.2 3.8 -1.4 0.9 -1.1 3.6 -3.2 5.9 -4.6 3.6 -2.3 4.4 -2.4 6.7 -1.4 2.8 1.3 3.2 2.7 1.5 4.4 -1.7 1.7 0 3.6 2.6 3.1 1.6 -0.4 2.2 -0.1 1.8 0.9 -0.3 0.7 0 1.3 0.5 1.3 0.6 0 1.4 0.9 1.7 2 0.4 1.2 1.1 1.7 1.8 1.4 0.8 -0.5 0.8 -0.2 0 0.7 -1.5 1.6 -1.7 3.3 -0.3 2.4 0.6 -0.3 1 -0.1 1 0.4 0 0.6 -0.7 1.1 -1.7 1.1 -1.4 0 -1.4 0.3 0.3 2.2 1 1.2 1.4 1.8 0.7 1.5 -0.7 -0.4 -1.4 0.1 -1.8 1.3 -0.4 1.1 -1.1 1.8 -1.6 1.5 -0.5 -0.4 -0.9 -0.1 -0.9 0.4 0 0.6 0.6 1.2 1.3 1.2 0.6 0.1 1.9 0.2 2.7 0.3 0.8 0 1.8 -0.8 2.1 -1.9 0.4 -1.1 0.7 1.7 0.7 6.2 0 4.5 0.3 8.7 0.6 9.2 0.4 0.5 0.3 1.2 -0.1 1.4 -0.5 0.3 -0.8 4.9 -0.7 10.4 0.1 5.9 -0.3 10.4 -1 11.2 -0.9 1.2 -0.7 1.3 1.1 0.9 1.4 -0.4 2.4 -0.1 2.7 0.8 0.3 0.8 -0.1 1.4 -1 1.4 -0.8 0 -1.2 0.5 -0.9 1 0.4 0.6 1.1 0.8 1.6 0.5 0.5 -0.4 0.9 -0.2 0.9 0.4 0 0.5 -0.6 1.2 -1.2 1.4 -1 0.4 -1 0.7 0 1.5 0.9 0.6 1.3 3.5 1.3 8.8 0 4.3 0 9.7 0 11.9 0 3.9 0 3.9 1.2 1.4 0.8 -1.8 1.2 -9.4 1.2 -23 0 -22.1 0.1 -22.5 5.7 -25.5 1.5 -0.8 4 -1.4 5.5 -1.4 2.6 0 2.4 0.3 -2.3 3.2 l-5.2 3.1 -0.3 34.8 c-0.4 32.8 -0.5 34.8 -2.4 36.9 -1.1 1.2 -9.8 6.9 -19.5 12.6 -16.1 9.6 -17.8 10.4 -21.2 9.8 -2.5 -0.4 -3.8 -0.2 -3.8 0.5 0 0.6 -0.5 1.1 -1.2 1.1 -0.6 0 -0.8 -0.3 -0.5 -0.7z"/>
  <path d="M176.4 310.9 c-0.7 -1.2 1.5 -3.1 2.7 -2.3 0.4 0.2 1 0 1.4 -0.6 0.8 -1.3 2.5 -1.3 2.5 0 0 1.6 -5.8 4.2 -6.6 2.9z"/>
  <path d="M298.4 275.3 c0.5 -18.8 0.1 -29.6 -1.5 -35.2 -0.2 -0.8 0.4 -1.7 1.4 -1.9 1.6 -0.3 1.7 1.6 1.7 29.2 0 21.4 -0.3 29.6 -1.1 29.6 -0.9 0 -1 -5.8 -0.5 -21.7z"/>
  <path d="M264.7 258.3 c0.8 -2.2 3 -3.6 6.1 -3.9 1.8 -0.2 2 0 0.9 1 -0.7 0.8 -2.7 2.1 -4.5 3 -3 1.5 -3.1 1.5 -2.5 -0.1z"/>
  <path d="M457.2 162.5 c-0.1 -10.7 -0.6 -17.5 -1.3 -18.2 -0.8 -0.8 -0.8 -1.3 0.1 -1.8 0.6 -0.4 1.3 -0.5 1.6 -0.2 0.2 0.2 0.3 8.7 0.1 18.8 l-0.2 18.4 -0.3 -17z"/>
  <path d="M401.4 175.5 c0.6 -1.3 1.3 -2.2 1.7 -1.9 0.3 0.2 1.7 -0.7 3 -1.9 1.3 -1.2 2.4 -2.1 2.4 -1.9 0 0.2 0.8 0 1.8 -0.4 2.6 -1 3.5 0.5 1.2 2.1 -1.1 0.8 -2.6 1.9 -3.2 2.5 -0.7 0.6 -1.3 0.8 -1.3 0.4 0 -0.3 -1.5 0.3 -3.3 1.4 l-3.4 2 1.1 -2.3z"/>
  <path d="M414 167.8 c0 -0.7 1.6 -2.3 3.5 -3.5 4.4 -2.9 6.1 -1 1.9 2.4 -3.2 2.5 -5.4 3 -5.4 1.1z"/>
 </g>
 <g fill="#858f9c">
  <path d="M965.5 987.3 c-2.4 -6.2 -10.6 -14.4 -16.8 -16.8 -2.6 -1 -4.7 -2.1 -4.7 -2.5 0 -0.4 2.1 -1.5 4.7 -2.5 6.2 -2.4 14.4 -10.6 16.8 -16.8 1 -2.6 2.1 -4.7 2.5 -4.7 0.4 0 1.5 2.1 2.5 4.7 2.4 6.2 10.6 14.4 16.8 16.8 2.6 1 4.7 2.1 4.7 2.5 0 0.4 -2.1 1.5 -4.7 2.5 -6.2 2.4 -14.4 10.6 -16.8 16.8 -1 2.6 -2.1 4.7 -2.5 4.7 -0.4 0 -1.5 -2.1 -2.5 -4.7z"/>
 </g>
</svg>
